<mxfile host="app.diagrams.net" modified="2024-03-26T13:44:44.511Z" agent="Mozilla/5.0 (Windows NT 10.0; Win64; x64) AppleWebKit/537.36 (KHTML, like Gecko) Chrome/123.0.0.0 Safari/537.36" etag="09KuKu2mzJzAMdEHCMc6" version="24.1.0" type="github">
  <diagram name="Page-1" id="9f46799a-70d6-7492-0946-bef42562c5a5">
    <mxGraphModel dx="1050" dy="1372" grid="1" gridSize="10" guides="1" tooltips="1" connect="1" arrows="1" fold="1" page="1" pageScale="1" pageWidth="1100" pageHeight="850" background="none" math="0" shadow="0">
      <root>
        <mxCell id="0" />
        <mxCell id="1" parent="0" />
        <mxCell id="QteQf2_sfhd6WNfn7tGC-2" value="&lt;font style=&quot;font-size: 19px;&quot;&gt;Client&lt;/font&gt;" style="rounded=0;whiteSpace=wrap;html=1;" vertex="1" parent="1">
          <mxGeometry x="60" y="210" width="120" height="140" as="geometry" />
        </mxCell>
        <mxCell id="QteQf2_sfhd6WNfn7tGC-3" value="&lt;font style=&quot;font-size: 19px;&quot;&gt;)&lt;/font&gt;" style="swimlane;whiteSpace=wrap;html=1;" vertex="1" parent="1">
          <mxGeometry x="350" y="170" width="280" height="200" as="geometry" />
        </mxCell>
        <mxCell id="QteQf2_sfhd6WNfn7tGC-9" value="Construction Management Tool" style="text;html=1;align=left;verticalAlign=middle;resizable=0;points=[];autosize=1;strokeColor=none;fillColor=none;fontStyle=3;fontSize=18;" vertex="1" parent="QteQf2_sfhd6WNfn7tGC-3">
          <mxGeometry y="65" width="270" height="40" as="geometry" />
        </mxCell>
        <mxCell id="QteQf2_sfhd6WNfn7tGC-4" value="&lt;font style=&quot;font-size: 19px;&quot;&gt;Project&lt;/font&gt;" style="rounded=0;whiteSpace=wrap;html=1;" vertex="1" parent="1">
          <mxGeometry x="810" y="200" width="120" height="110" as="geometry" />
        </mxCell>
        <mxCell id="QteQf2_sfhd6WNfn7tGC-5" value="&lt;font style=&quot;font-size: 19px;&quot;&gt;Bank&lt;/font&gt;" style="rounded=0;whiteSpace=wrap;html=1;" vertex="1" parent="1">
          <mxGeometry x="450" y="490" width="120" height="60" as="geometry" />
        </mxCell>
        <mxCell id="QteQf2_sfhd6WNfn7tGC-12" value="Project" style="text;html=1;align=center;verticalAlign=middle;resizable=0;points=[];autosize=1;strokeColor=none;fillColor=none;" vertex="1" parent="1">
          <mxGeometry x="640" y="255" width="60" height="30" as="geometry" />
        </mxCell>
        <mxCell id="QteQf2_sfhd6WNfn7tGC-13" value="response" style="text;html=1;align=center;verticalAlign=middle;resizable=0;points=[];autosize=1;strokeColor=none;fillColor=none;rotation=180;" vertex="1" parent="1">
          <mxGeometry x="730" y="220" width="70" height="30" as="geometry" />
        </mxCell>
        <mxCell id="QteQf2_sfhd6WNfn7tGC-14" value="feedback" style="text;html=1;align=center;verticalAlign=middle;resizable=0;points=[];autosize=1;strokeColor=none;fillColor=none;rotation=270;" vertex="1" parent="1">
          <mxGeometry x="430" y="418" width="70" height="30" as="geometry" />
        </mxCell>
        <mxCell id="QteQf2_sfhd6WNfn7tGC-15" value="payment" style="text;html=1;align=center;verticalAlign=middle;resizable=0;points=[];autosize=1;strokeColor=none;fillColor=none;rotation=270;" vertex="1" parent="1">
          <mxGeometry x="520" y="410" width="70" height="30" as="geometry" />
        </mxCell>
        <mxCell id="QteQf2_sfhd6WNfn7tGC-17" value="" style="endArrow=classic;html=1;rounded=0;exitX=1.023;exitY=0.451;exitDx=0;exitDy=0;exitPerimeter=0;entryX=0.009;entryY=0.935;entryDx=0;entryDy=0;entryPerimeter=0;" edge="1" parent="1" source="QteQf2_sfhd6WNfn7tGC-2" target="QteQf2_sfhd6WNfn7tGC-9">
          <mxGeometry width="50" height="50" relative="1" as="geometry">
            <mxPoint x="190" y="255" as="sourcePoint" />
            <mxPoint x="340" y="270" as="targetPoint" />
            <Array as="points" />
          </mxGeometry>
        </mxCell>
        <mxCell id="QteQf2_sfhd6WNfn7tGC-18" value="" style="endArrow=classic;html=1;rounded=0;exitX=-0.007;exitY=-0.133;exitDx=0;exitDy=0;exitPerimeter=0;entryX=-0.003;entryY=0.015;entryDx=0;entryDy=0;entryPerimeter=0;" edge="1" parent="1" source="QteQf2_sfhd6WNfn7tGC-23" target="QteQf2_sfhd6WNfn7tGC-9">
          <mxGeometry width="50" height="50" relative="1" as="geometry">
            <mxPoint x="220" y="250" as="sourcePoint" />
            <mxPoint x="350" y="228" as="targetPoint" />
            <Array as="points" />
          </mxGeometry>
        </mxCell>
        <mxCell id="QteQf2_sfhd6WNfn7tGC-21" value="" style="endArrow=classic;html=1;rounded=0;entryX=1.037;entryY=0.703;entryDx=0;entryDy=0;entryPerimeter=0;" edge="1" parent="1" target="QteQf2_sfhd6WNfn7tGC-2">
          <mxGeometry width="50" height="50" relative="1" as="geometry">
            <mxPoint x="350" y="310" as="sourcePoint" />
            <mxPoint x="250" y="280" as="targetPoint" />
          </mxGeometry>
        </mxCell>
        <mxCell id="QteQf2_sfhd6WNfn7tGC-22" value="info" style="text;html=1;align=center;verticalAlign=middle;resizable=0;points=[];autosize=1;strokeColor=none;fillColor=none;" vertex="1" parent="1">
          <mxGeometry x="180" y="208" width="40" height="30" as="geometry" />
        </mxCell>
        <mxCell id="QteQf2_sfhd6WNfn7tGC-23" value="project" style="text;html=1;align=center;verticalAlign=middle;resizable=0;points=[];autosize=1;strokeColor=none;fillColor=none;" vertex="1" parent="1">
          <mxGeometry x="180" y="240" width="60" height="30" as="geometry" />
        </mxCell>
        <mxCell id="QteQf2_sfhd6WNfn7tGC-24" value="response" style="text;html=1;align=center;verticalAlign=middle;resizable=0;points=[];autosize=1;strokeColor=none;fillColor=none;" vertex="1" parent="1">
          <mxGeometry x="230" y="310" width="70" height="30" as="geometry" />
        </mxCell>
        <mxCell id="QteQf2_sfhd6WNfn7tGC-26" value="" style="endArrow=classic;html=1;rounded=0;entryX=0;entryY=0.75;entryDx=0;entryDy=0;" edge="1" parent="1" target="QteQf2_sfhd6WNfn7tGC-4">
          <mxGeometry width="50" height="50" relative="1" as="geometry">
            <mxPoint x="630" y="280" as="sourcePoint" />
            <mxPoint x="740" y="270" as="targetPoint" />
          </mxGeometry>
        </mxCell>
        <mxCell id="QteQf2_sfhd6WNfn7tGC-27" value="" style="endArrow=classic;html=1;rounded=0;exitX=-0.074;exitY=0.147;exitDx=0;exitDy=0;exitPerimeter=0;" edge="1" parent="1" source="QteQf2_sfhd6WNfn7tGC-13">
          <mxGeometry width="50" height="50" relative="1" as="geometry">
            <mxPoint x="740" y="300" as="sourcePoint" />
            <mxPoint x="630" y="240" as="targetPoint" />
          </mxGeometry>
        </mxCell>
        <mxCell id="QteQf2_sfhd6WNfn7tGC-29" value="" style="endArrow=classic;html=1;rounded=0;entryX=0.5;entryY=1;entryDx=0;entryDy=0;exitX=0.333;exitY=-0.013;exitDx=0;exitDy=0;exitPerimeter=0;" edge="1" parent="1" source="QteQf2_sfhd6WNfn7tGC-5" target="QteQf2_sfhd6WNfn7tGC-3">
          <mxGeometry width="50" height="50" relative="1" as="geometry">
            <mxPoint x="490" y="480" as="sourcePoint" />
            <mxPoint x="510" y="380" as="targetPoint" />
          </mxGeometry>
        </mxCell>
        <mxCell id="QteQf2_sfhd6WNfn7tGC-30" value="" style="endArrow=classic;html=1;rounded=0;entryX=0.75;entryY=0;entryDx=0;entryDy=0;" edge="1" parent="1">
          <mxGeometry width="50" height="50" relative="1" as="geometry">
            <mxPoint x="529" y="373" as="sourcePoint" />
            <mxPoint x="529" y="493" as="targetPoint" />
          </mxGeometry>
        </mxCell>
        <mxCell id="QteQf2_sfhd6WNfn7tGC-31" value="&lt;font style=&quot;font-size: 30px;&quot;&gt;Diagram O&lt;/font&gt;" style="text;html=1;align=center;verticalAlign=middle;resizable=0;points=[];autosize=1;strokeColor=none;fillColor=none;" vertex="1" parent="1">
          <mxGeometry x="375" y="-12" width="170" height="50" as="geometry" />
        </mxCell>
        <mxCell id="QteQf2_sfhd6WNfn7tGC-32" value="&lt;font style=&quot;font-size: 30px;&quot;&gt;Level )&lt;/font&gt;" style="text;html=1;align=center;verticalAlign=middle;resizable=0;points=[];autosize=1;strokeColor=none;fillColor=none;" vertex="1" parent="1">
          <mxGeometry x="365" y="38" width="110" height="50" as="geometry" />
        </mxCell>
      </root>
    </mxGraphModel>
  </diagram>
</mxfile>
